<svg width="50" height="40" viewBox="0 0 50 40" fill="none" xmlns="http://www.w3.org/2000/svg">
<g id="&#195;&#173;cone email">
<path id="Vector" d="M4.375 0H45.625C47.8111 0 50 2.3348 50 4.66667V35.3333C50 37.6652 47.8111 40 45.625 40H4.375C2.18887 40 0 37.6652 0 35.3333V4.66667C0 2.3348 2.18887 0 4.375 0ZM5 32C5 33.7489 5.86037 34.6667 7.5 34.6667H42.5C44.1396 34.6667 45 33.7489 45 32V8L28.3204 26.2089C26.7746 27.8577 24.2683 27.8577 22.7225 26.2089L5 8V32ZM8.75 5.33333L23.4223 20.9841C24.5816 22.2208 26.4613 22.2208 27.6206 20.9841L42.5 5.33333H8.75Z" fill="#FCFFF0"/>
</g>
</svg>
