<svg width="68" height="68" viewBox="0 0 68 68" fill="none" xmlns="http://www.w3.org/2000/svg">
<g filter="url(#filter0_d_436_1147)">
<rect x="4" width="60" height="60" rx="12" fill="#224A04"/>
</g>
<path d="M42.0938 30C42.0938 25.875 38.7188 22.575 34.5 22.575C30.2812 22.575 26.9063 25.875 26.9063 30C26.9063 34.125 30.2812 37.425 34.5 37.425C38.7188 37.425 42.0938 34.125 42.0938 30ZM46.0312 30C46.0312 36.325 40.9688 41.275 34.5 41.275C28.0312 41.275 22.9688 36.325 22.9688 30C22.9688 23.675 28.0312 18.725 34.5 18.725C40.9688 18.725 46.0312 23.675 46.0312 30ZM49.125 18.175C49.125 19.825 48 20.925 46.3125 20.925C44.625 20.925 43.5 19.825 43.5 18.175C43.5 16.525 44.625 15.425 46.3125 15.425C48 15.425 49.125 16.8 49.125 18.175ZM34.5 11.85C31.125 11.85 24.0938 11.575 21.2813 12.675C19.3125 13.5 17.625 15.15 17.0625 17.075C15.9375 19.825 16.2188 26.7 16.2188 30C16.2188 33.3 15.9375 40.175 17.0625 42.925C17.625 44.85 19.3125 46.5 21.2813 47.05C24.0938 48.15 31.4062 47.875 34.5 47.875C37.5938 47.875 44.9062 48.15 47.7188 47.05C49.6875 46.225 51.0938 44.85 51.9375 42.925C53.0625 39.9 52.7812 33.025 52.7812 30C52.7812 26.975 53.0625 19.825 51.9375 17.075C51.375 15.15 49.6875 13.5 47.7188 12.95C44.9062 11.575 37.875 11.85 34.5 11.85ZM57 30V39.075C57 42.375 55.875 45.675 53.3438 48.425C50.8125 50.9 47.4375 52 43.7812 52H25.2187C21.8437 52 18.4688 50.9 15.6562 48.425C13.4062 45.95 12 42.65 12 39.075V30V20.925C12 17.35 13.4062 14.05 15.6562 11.575C18.4688 9.375 21.8437 8 25.2187 8H43.7812C47.1562 8 50.5313 9.1 53.3438 11.575C55.5938 14.05 57 17.35 57 20.925V30Z" fill="#FCFFF0"/>
<defs>
<filter id="filter0_d_436_1147" x="0" y="0" width="68" height="68" filterUnits="userSpaceOnUse" color-interpolation-filters="sRGB">
<feFlood flood-opacity="0" result="BackgroundImageFix"/>
<feColorMatrix in="SourceAlpha" type="matrix" values="0 0 0 0 0 0 0 0 0 0 0 0 0 0 0 0 0 0 127 0" result="hardAlpha"/>
<feOffset dy="4"/>
<feGaussianBlur stdDeviation="2"/>
<feComposite in2="hardAlpha" operator="out"/>
<feColorMatrix type="matrix" values="0 0 0 0 0 0 0 0 0 0 0 0 0 0 0 0 0 0 0.25 0"/>
<feBlend mode="normal" in2="BackgroundImageFix" result="effect1_dropShadow_436_1147"/>
<feBlend mode="normal" in="SourceGraphic" in2="effect1_dropShadow_436_1147" result="shape"/>
</filter>
</defs>
</svg>
