<svg width="48" height="48" viewBox="0 0 48 48" fill="none" xmlns="http://www.w3.org/2000/svg">
<g filter="url(#filter0_d_436_1137)">
<rect x="4" width="40" height="40" rx="9" fill="#FEECC0"/>
</g>
<path d="M28.8533 20.0001C28.8533 17.3901 26.6963 15.3021 24 15.3021C21.3038 15.3021 19.1467 17.3901 19.1467 20.0001C19.1467 22.6101 21.3038 24.6981 24 24.6981C26.6963 24.6981 28.8533 22.6101 28.8533 20.0001ZM31.3699 20.0001C31.3699 24.0021 28.1343 27.1341 24 27.1341C19.8657 27.1341 16.6302 24.0021 16.6302 20.0001C16.6302 15.9981 19.8657 12.8661 24 12.8661C28.1343 12.8661 31.3699 15.9981 31.3699 20.0001ZM33.3471 12.5181C33.3471 13.5621 32.6281 14.2581 31.5496 14.2581C30.4711 14.2581 29.7521 13.5621 29.7521 12.5181C29.7521 11.4741 30.4711 10.7781 31.5496 10.7781C32.6281 10.7781 33.3471 11.6481 33.3471 12.5181ZM24 8.51608C21.843 8.51608 17.3492 8.34208 15.5517 9.03808C14.2934 9.56008 13.2149 10.6041 12.8554 11.8221C12.1364 13.5621 12.3162 17.9121 12.3162 20.0001C12.3162 22.0881 12.1364 26.4381 12.8554 28.1781C13.2149 29.3961 14.2934 30.4401 15.5517 30.7881C17.3492 31.4841 22.0228 31.3101 24 31.3101C25.9773 31.3101 30.6509 31.4841 32.4484 30.7881C33.7066 30.2661 34.6054 29.3961 35.1447 28.1781C35.8637 26.2641 35.6839 21.9141 35.6839 20.0001C35.6839 18.0861 35.8637 13.5621 35.1447 11.8221C34.9343 11.1093 34.4777 10.4562 33.883 9.9672C33.0438 9.27726 31.954 8.94897 30.8825 8.76945C28.7466 8.41158 25.6716 8.51608 24 8.51608ZM38.3802 20.0001V25.7421C38.3802 27.8301 37.6612 29.9181 36.0434 31.6581C34.4257 33.2241 32.2686 33.9201 29.9319 33.9201H18.0682C15.9112 33.9201 13.7542 33.2241 11.9566 31.6581C10.5186 30.0921 9.61987 28.0041 9.61987 25.7421V20.0001V14.2581C9.61987 12.5356 10.1411 10.9139 11.0247 9.54688C11.5756 8.69457 12.3431 8.00102 13.2182 7.48705C14.7232 6.60315 16.3957 6.08008 18.0682 6.08008H29.9319C32.0889 6.08008 34.2459 6.77608 36.0434 8.34208C37.4814 9.90808 38.3802 11.9961 38.3802 14.2581V20.0001Z" fill="#EE6B0C"/>
<defs>
<filter id="filter0_d_436_1137" x="0" y="0" width="48" height="48" filterUnits="userSpaceOnUse" color-interpolation-filters="sRGB">
<feFlood flood-opacity="0" result="BackgroundImageFix"/>
<feColorMatrix in="SourceAlpha" type="matrix" values="0 0 0 0 0 0 0 0 0 0 0 0 0 0 0 0 0 0 127 0" result="hardAlpha"/>
<feOffset dy="4"/>
<feGaussianBlur stdDeviation="2"/>
<feComposite in2="hardAlpha" operator="out"/>
<feColorMatrix type="matrix" values="0 0 0 0 0 0 0 0 0 0 0 0 0 0 0 0 0 0 0.25 0"/>
<feBlend mode="normal" in2="BackgroundImageFix" result="effect1_dropShadow_436_1137"/>
<feBlend mode="normal" in="SourceGraphic" in2="effect1_dropShadow_436_1137" result="shape"/>
</filter>
</defs>
</svg>
