<svg width="68" height="68" viewBox="0 0 68 68" fill="none" xmlns="http://www.w3.org/2000/svg">
<g filter="url(#filter0_d_436_1151)">
<rect x="4" width="60" height="60" rx="12" fill="#EE6B0C"/>
</g>
<path d="M12.4297 49.9201H22.6472V22.9235H12.4297M17.6641 10.0801C14.4996 10.0801 12.4297 12.0951 12.4297 14.7438C12.4297 17.3357 14.4397 19.4107 17.5414 19.4107H17.6031C20.8285 19.4107 22.8347 17.3357 22.8347 14.7438C22.7739 12.0951 20.8285 10.0801 17.6641 10.0801ZM55.5702 34.6118V49.9201H46.488V35.5953C46.488 31.9669 44.9863 29.5438 41.6394 29.5438C39.0845 29.5438 37.5641 31.2126 36.8947 32.8266C36.6513 33.404 36.2705 34.2363 36.2705 35.0445V49.9201H27.1883C27.1883 49.9201 27.1883 26.7801 27.1883 22.9235H36.2705V27.0556L36.5886 27.0086V26.9211C37.8168 25.0844 40.0113 22.4599 44.9228 22.4599C51.009 22.4599 55.5702 26.3192 55.5702 34.6118Z" fill="#FCFFF0"/>
<defs>
<filter id="filter0_d_436_1151" x="0" y="0" width="68" height="68" filterUnits="userSpaceOnUse" color-interpolation-filters="sRGB">
<feFlood flood-opacity="0" result="BackgroundImageFix"/>
<feColorMatrix in="SourceAlpha" type="matrix" values="0 0 0 0 0 0 0 0 0 0 0 0 0 0 0 0 0 0 127 0" result="hardAlpha"/>
<feOffset dy="4"/>
<feGaussianBlur stdDeviation="2"/>
<feComposite in2="hardAlpha" operator="out"/>
<feColorMatrix type="matrix" values="0 0 0 0 0 0 0 0 0 0 0 0 0 0 0 0 0 0 0.25 0"/>
<feBlend mode="normal" in2="BackgroundImageFix" result="effect1_dropShadow_436_1151"/>
<feBlend mode="normal" in="SourceGraphic" in2="effect1_dropShadow_436_1151" result="shape"/>
</filter>
</defs>
</svg>
