<svg width="44" height="44" viewBox="0 0 44 44" fill="none" xmlns="http://www.w3.org/2000/svg">
<path d="M42.22 21.32L42.22 21.3199C42.6543 19.4216 42.5549 17.6608 42.1183 16.3707C41.6725 15.0533 40.9784 14.4595 40.3641 14.3163C39.7525 14.1738 38.8762 14.3984 37.9067 15.3817C36.9564 16.3456 36.1027 17.8823 35.6683 19.7809C35.2341 21.6793 35.3334 23.4401 35.77 24.7301C36.2158 26.0475 36.9099 26.6414 37.5242 26.7846L42.22 21.32ZM42.22 21.32C41.7857 23.2185 40.932 24.7553 39.9817 25.7192M42.22 21.32L39.9817 25.7192M39.9817 25.7192C39.0122 26.7025 38.1359 26.9271 37.5243 26.7847L39.9817 25.7192ZM5.15546 11.4151L5.15553 11.4151C5.90097 11.3227 6.79273 11.6578 7.63628 12.6135C8.47458 13.5632 9.14771 15.0193 9.3604 16.7676C9.57308 18.5157 9.26915 20.0942 8.6824 21.2223C8.09165 22.3582 7.30426 22.9027 6.55765 22.9952C5.81212 23.0876 4.92033 22.7525 4.0768 21.7968C3.23851 20.8471 2.5654 19.3909 2.35271 17.6427C2.14003 15.8945 2.44394 14.3161 3.03067 13.1879C3.62141 12.0521 4.4088 11.5076 5.15546 11.4151ZM28.8134 18.2253L28.8134 18.2253C28.2147 18.1831 27.3919 17.67 26.6999 16.1965C26.0323 14.7748 25.6519 12.7476 25.8099 10.4675C25.9679 8.18731 26.6241 6.23377 27.4807 4.92049C28.3684 3.55963 29.2524 3.16841 29.8498 3.21059C30.4485 3.25285 31.2714 3.76597 31.9633 5.23944C32.6309 6.66112 33.0113 8.68831 32.8533 10.9684C32.6954 13.2486 32.0391 15.2021 31.1825 16.5154C30.2948 17.8763 29.4109 18.2675 28.8134 18.2253ZM16.7556 1.5C17.3551 1.5 18.2106 1.95316 19.0024 3.37379C19.7664 4.74462 20.286 6.73987 20.286 9.02564C20.286 11.3114 19.7664 13.3067 19.0024 14.6775C18.2106 16.0981 17.3551 16.5513 16.7556 16.5513C16.1562 16.5513 15.3006 16.0981 14.5089 14.6775C13.7448 13.3067 13.2253 11.3114 13.2253 9.02564C13.2253 6.73987 13.7448 4.74462 14.5089 3.37379C15.3006 1.95316 16.1562 1.5 16.7556 1.5ZM22.2547 40.8573C20.7163 40.7788 19.2121 40.9655 17.7971 41.2431C16.5268 41.4922 14.8449 41.8102 13.2968 42.0652C11.7015 42.3281 10.3851 42.5 9.76901 42.5C8.93601 42.5 7.35554 42.1589 6.01975 41.2211C4.75417 40.3325 3.72345 38.9309 3.72345 36.6667C3.72345 35.1845 4.02729 34.2862 4.41194 33.6862C4.80016 33.0807 5.36431 32.6315 6.15354 32.2026C6.67478 31.9193 7.16102 31.7062 7.70996 31.4657C8.09763 31.2958 8.51656 31.1122 9.00119 30.8805C10.0614 30.3737 11.2171 29.7209 12.2319 28.6968C13.1849 27.735 13.8822 26.7097 14.4727 25.7888C14.5977 25.5938 14.716 25.4068 14.8301 25.2266C15.2777 24.5191 15.6581 23.9182 16.1043 23.3677C16.6339 22.7144 17.201 22.2102 17.9441 21.8549C18.6938 21.4965 19.7199 21.2436 21.2271 21.2436C24.0331 21.2436 25.5982 22.3689 26.9245 23.9509C27.5286 24.6714 28.0612 25.4615 28.6455 26.3281C28.7439 26.4742 28.8439 26.6224 28.9458 26.7728C29.6293 27.7809 30.3949 28.871 31.3401 29.825C32.2711 30.7646 33.2635 31.5116 34.1809 32.1561C34.4997 32.3801 34.799 32.5849 35.0833 32.7795C35.6544 33.1705 36.1653 33.5201 36.6533 33.9008C38.0131 34.9612 38.7307 35.913 38.7307 37.5128C38.7307 39.3413 38.0839 40.4705 37.0049 41.213C35.8292 42.022 33.9498 42.5 31.2878 42.5C30.0966 42.5 29.3381 42.4186 28.7923 42.3103C28.2568 42.2041 27.8803 42.0641 27.4076 41.8815L27.3984 41.8779C26.3174 41.4604 25.1368 41.0043 22.2547 40.8573Z" stroke="#FEECC0" stroke-width="3"/>
</svg>
